<?xml version="1.0" encoding="UTF-8" standalone="no"?>
<!DOCTYPE svg PUBLIC "-//W3C//DTD SVG 1.1//EN"
 "http://www.w3.org/Graphics/SVG/1.1/DTD/svg11.dtd">
<!-- Generated by graphviz version 2.40.1 (20161225.0304)
 -->
<!-- Title: carla Pages: 1 -->
<svg width="588pt" height="591pt"
 viewBox="0.00 0.00 588.00 591.00" xmlns="http://www.w3.org/2000/svg" xmlns:xlink="http://www.w3.org/1999/xlink">
<g id="graph0" class="graph" transform="scale(1 1) rotate(0) translate(4 587)">
<title>carla</title>
<polygon fill="#ffffff" stroke="transparent" points="-4,4 -4,-587 584,-587 584,4 -4,4"/>
<g id="clust1" class="cluster">
<title>clusterdir_b9166249188ce33115fd7d5eed1849f2</title>
<g id="a_clust1"><a xlink:href="dir_b9166249188ce33115fd7d5eed1849f2.html" target="_top" xlink:title="source">
<polygon fill="#ddddee" stroke="#000000" points="8,-56 8,-575 568,-575 568,-56 8,-56"/>
<text text-anchor="middle" x="288" y="-563" font-family="Helvetica,sans-Serif" font-size="10.00" fill="#000000">source</text>
</a>
</g>
</g>
<g id="clust2" class="cluster">
<title>clusterdir_b14cdd661f9a7048a44f1771cd402401</title>
<g id="a_clust2"><a xlink:href="dir_b14cdd661f9a7048a44f1771cd402401.html" target="_top">
<polygon fill="#eeeeff" stroke="#000000" points="16,-64 16,-548 560,-548 560,-64 16,-64"/>
</a>
</g>
</g>
<!-- dir_b14cdd661f9a7048a44f1771cd402401 -->
<g id="node1" class="node">
<title>dir_b14cdd661f9a7048a44f1771cd402401</title>
<text text-anchor="middle" x="525" y="-519.5" font-family="Helvetica,sans-Serif" font-size="10.00" fill="#000000">carla</text>
</g>
<!-- dir_cb41432ea01ddbb1240623c7c0fff85f -->
<g id="node18" class="node">
<title>dir_cb41432ea01ddbb1240623c7c0fff85f</title>
<g id="a_node18"><a xlink:href="dir_cb41432ea01ddbb1240623c7c0fff85f.html" target="_top" xlink:title="third&#45;party">
<polygon fill="#ffffff" stroke="#ff0000" points="526,-36 458,-36 458,0 526,0 526,-36"/>
<text text-anchor="middle" x="492" y="-15.5" font-family="Helvetica,sans-Serif" font-size="10.00" fill="#000000">third&#45;party</text>
</a>
</g>
</g>
<!-- dir_b14cdd661f9a7048a44f1771cd402401&#45;&gt;dir_cb41432ea01ddbb1240623c7c0fff85f -->
<g id="edge8" class="edge">
<title>dir_b14cdd661f9a7048a44f1771cd402401&#45;&gt;dir_cb41432ea01ddbb1240623c7c0fff85f</title>
<path fill="none" stroke="#000000" d="M536.9342,-503.7554C553.1101,-477.2192 580,-425.903 580,-378 580,-378 580,-378 580,-162 580,-115.0672 545.5444,-70.4873 519.7531,-43.6918"/>
<polygon fill="#000000" stroke="#000000" points="521.9382,-40.9247 512.4102,-36.2913 516.9691,-45.8551 521.9382,-40.9247"/>
<g id="a_edge8&#45;headlabel"><a xlink:href="dir_000009_000044.html" target="_top" xlink:title="15">
<text text-anchor="middle" x="526.4855" y="-38.9765" font-family="Helvetica,sans-Serif" font-size="10.00" fill="#000000">15</text>
</a>
</g>
</g>
<!-- dir_64d7bb605f27024d49af86070bd3f0b6 -->
<g id="node2" class="node">
<title>dir_64d7bb605f27024d49af86070bd3f0b6</title>
<g id="a_node2"><a xlink:href="dir_64d7bb605f27024d49af86070bd3f0b6.html" target="_top" xlink:title="client">
<polygon fill="#ffffff" stroke="#ff0000" points="262,-540 208,-540 208,-504 262,-504 262,-540"/>
<text text-anchor="middle" x="235" y="-519.5" font-family="Helvetica,sans-Serif" font-size="10.00" fill="#000000">client</text>
</a>
</g>
</g>
<!-- dir_8b032d9d353dba85c86dc5364d785bbe -->
<g id="node3" class="node">
<title>dir_8b032d9d353dba85c86dc5364d785bbe</title>
<g id="a_node3"><a xlink:href="dir_8b032d9d353dba85c86dc5364d785bbe.html" target="_top" xlink:title="geom">
<polygon fill="#ffffff" stroke="#000000" points="322,-108 268,-108 268,-72 322,-72 322,-108"/>
<text text-anchor="middle" x="295" y="-87.5" font-family="Helvetica,sans-Serif" font-size="10.00" fill="#000000">geom</text>
</a>
</g>
</g>
<!-- dir_64d7bb605f27024d49af86070bd3f0b6&#45;&gt;dir_8b032d9d353dba85c86dc5364d785bbe -->
<g id="edge40" class="edge">
<title>dir_64d7bb605f27024d49af86070bd3f0b6&#45;&gt;dir_8b032d9d353dba85c86dc5364d785bbe</title>
<path fill="none" stroke="#000000" d="M216.2873,-503.662C207.4722,-493.9075 197.6696,-481.2163 192,-468 147.8279,-365.0315 165.1242,-326.2662 185,-216 190.8151,-183.7393 181.5813,-170.4099 201,-144 215.1802,-124.7147 238.4728,-111.2631 258.3231,-102.6089"/>
<polygon fill="#000000" stroke="#000000" points="259.8167,-105.7792 267.7362,-98.7413 257.1564,-99.3044 259.8167,-105.7792"/>
<g id="a_edge40&#45;headlabel"><a xlink:href="dir_000011_000023.html" target="_top" xlink:title="19">
<text text-anchor="middle" x="257.5708" y="-107.2714" font-family="Helvetica,sans-Serif" font-size="10.00" fill="#000000">19</text>
</a>
</g>
</g>
<!-- dir_ad0f87b2245230d21b267626b2c7750a -->
<g id="node6" class="node">
<title>dir_ad0f87b2245230d21b267626b2c7750a</title>
<g id="a_node6"><a xlink:href="dir_ad0f87b2245230d21b267626b2c7750a.html" target="_top" xlink:title="nav">
<polygon fill="#ffffff" stroke="#000000" points="262,-468 208,-468 208,-432 262,-432 262,-468"/>
<text text-anchor="middle" x="235" y="-447.5" font-family="Helvetica,sans-Serif" font-size="10.00" fill="#000000">nav</text>
</a>
</g>
</g>
<!-- dir_64d7bb605f27024d49af86070bd3f0b6&#45;&gt;dir_ad0f87b2245230d21b267626b2c7750a -->
<g id="edge33" class="edge">
<title>dir_64d7bb605f27024d49af86070bd3f0b6&#45;&gt;dir_ad0f87b2245230d21b267626b2c7750a</title>
<path fill="none" stroke="#000000" d="M229.0476,-503.8314C228.2972,-496.131 228.0763,-486.9743 228.3849,-478.4166"/>
<polygon fill="#000000" stroke="#000000" points="231.8792,-478.6161 229.024,-468.4133 224.8935,-478.1697 231.8792,-478.6161"/>
<g id="a_edge33&#45;headlabel"><a xlink:href="dir_000011_000057.html" target="_top" xlink:title="2">
<text text-anchor="middle" x="234.4836" y="-479.8844" font-family="Helvetica,sans-Serif" font-size="10.00" fill="#000000">2</text>
</a>
</g>
</g>
<!-- dir_a02f1db122f1bf0661014bee93740912 -->
<g id="node7" class="node">
<title>dir_a02f1db122f1bf0661014bee93740912</title>
<g id="a_node7"><a xlink:href="dir_a02f1db122f1bf0661014bee93740912.html" target="_top" xlink:title="opendrive">
<polygon fill="#ffffff" stroke="#ff0000" points="551.5,-252 486.5,-252 486.5,-216 551.5,-216 551.5,-252"/>
<text text-anchor="middle" x="519" y="-231.5" font-family="Helvetica,sans-Serif" font-size="10.00" fill="#000000">opendrive</text>
</a>
</g>
</g>
<!-- dir_64d7bb605f27024d49af86070bd3f0b6&#45;&gt;dir_a02f1db122f1bf0661014bee93740912 -->
<g id="edge41" class="edge">
<title>dir_64d7bb605f27024d49af86070bd3f0b6&#45;&gt;dir_a02f1db122f1bf0661014bee93740912</title>
<path fill="none" stroke="#000000" d="M262.3401,-519.461C318.2815,-513.6994 442.9891,-497.7694 472,-468 526.5787,-411.9944 526.2288,-311.3898 522.2759,-262.3823"/>
<polygon fill="#000000" stroke="#000000" points="525.7398,-261.8278 521.3394,-252.19 518.7692,-262.4683 525.7398,-261.8278"/>
<g id="a_edge41&#45;headlabel"><a xlink:href="dir_000011_000047.html" target="_top" xlink:title="1">
<text text-anchor="middle" x="528.896" y="-262.6475" font-family="Helvetica,sans-Serif" font-size="10.00" fill="#000000">1</text>
</a>
</g>
</g>
<!-- dir_a44fab28cda52915bea048e19f74f82b -->
<g id="node9" class="node">
<title>dir_a44fab28cda52915bea048e19f74f82b</title>
<g id="a_node9"><a xlink:href="dir_a44fab28cda52915bea048e19f74f82b.html" target="_top" xlink:title="profiler">
<polygon fill="#ffffff" stroke="#000000" points="86,-108 32,-108 32,-72 86,-72 86,-108"/>
<text text-anchor="middle" x="59" y="-87.5" font-family="Helvetica,sans-Serif" font-size="10.00" fill="#000000">profiler</text>
</a>
</g>
</g>
<!-- dir_64d7bb605f27024d49af86070bd3f0b6&#45;&gt;dir_a44fab28cda52915bea048e19f74f82b -->
<g id="edge35" class="edge">
<title>dir_64d7bb605f27024d49af86070bd3f0b6&#45;&gt;dir_a44fab28cda52915bea048e19f74f82b</title>
<path fill="none" stroke="#000000" d="M207.7595,-510.0059C175.7326,-495.814 125.9126,-473.4215 118,-468 70.5504,-435.4887 25,-435.5191 25,-378 25,-378 25,-378 25,-234 25,-192.8199 38.3332,-146.7455 48.3005,-118.0555"/>
<polygon fill="#000000" stroke="#000000" points="51.7129,-118.9079 51.7895,-108.3133 45.1227,-116.5477 51.7129,-118.9079"/>
<g id="a_edge35&#45;headlabel"><a xlink:href="dir_000011_000054.html" target="_top" xlink:title="2">
<text text-anchor="middle" x="53.174" y="-120.7493" font-family="Helvetica,sans-Serif" font-size="10.00" fill="#000000">2</text>
</a>
</g>
</g>
<!-- dir_8afc3b5d71d319c27bc8bd38d925daae -->
<g id="node11" class="node">
<title>dir_8afc3b5d71d319c27bc8bd38d925daae</title>
<g id="a_node11"><a xlink:href="dir_8afc3b5d71d319c27bc8bd38d925daae.html" target="_top" xlink:title="road">
<polygon fill="#ffffff" stroke="#ff0000" points="456,-180 402,-180 402,-144 456,-144 456,-180"/>
<text text-anchor="middle" x="429" y="-159.5" font-family="Helvetica,sans-Serif" font-size="10.00" fill="#000000">road</text>
</a>
</g>
</g>
<!-- dir_64d7bb605f27024d49af86070bd3f0b6&#45;&gt;dir_8afc3b5d71d319c27bc8bd38d925daae -->
<g id="edge36" class="edge">
<title>dir_64d7bb605f27024d49af86070bd3f0b6&#45;&gt;dir_8afc3b5d71d319c27bc8bd38d925daae</title>
<path fill="none" stroke="#000000" d="M262.1292,-519.6039C299.1951,-515.1096 366.1686,-502.5037 411,-468 448.3341,-439.2664 467,-425.1111 467,-378 467,-378 467,-378 467,-306 467,-264.3681 451.9672,-218.14 440.8119,-189.567"/>
<polygon fill="#000000" stroke="#000000" points="444.0368,-188.2055 437.0588,-180.2332 437.5422,-190.817 444.0368,-188.2055"/>
<g id="a_edge36&#45;headlabel"><a xlink:href="dir_000011_000046.html" target="_top" xlink:title="18">
<text text-anchor="middle" x="448.0121" y="-187.9814" font-family="Helvetica,sans-Serif" font-size="10.00" fill="#000000">18</text>
</a>
</g>
</g>
<!-- dir_83201f30ace02cdf218980110872f8a7 -->
<g id="node13" class="node">
<title>dir_83201f30ace02cdf218980110872f8a7</title>
<g id="a_node13"><a xlink:href="dir_83201f30ace02cdf218980110872f8a7.html" target="_top" xlink:title="rpc">
<polygon fill="#ffffff" stroke="#000000" points="358,-396 304,-396 304,-360 358,-360 358,-396"/>
<text text-anchor="middle" x="331" y="-375.5" font-family="Helvetica,sans-Serif" font-size="10.00" fill="#000000">rpc</text>
</a>
</g>
</g>
<!-- dir_64d7bb605f27024d49af86070bd3f0b6&#45;&gt;dir_83201f30ace02cdf218980110872f8a7 -->
<g id="edge39" class="edge">
<title>dir_64d7bb605f27024d49af86070bd3f0b6&#45;&gt;dir_83201f30ace02cdf218980110872f8a7</title>
<path fill="none" stroke="#000000" d="M247.7041,-503.7445C254.7727,-493.3921 263.6092,-480.1213 271,-468 280.5287,-452.3726 281.0871,-447.3866 291,-432 296.9711,-422.7317 303.9844,-412.9477 310.4569,-404.2917"/>
<polygon fill="#000000" stroke="#000000" points="313.4363,-406.1553 316.6904,-396.0726 307.8589,-401.9253 313.4363,-406.1553"/>
<g id="a_edge39&#45;headlabel"><a xlink:href="dir_000011_000010.html" target="_top" xlink:title="83">
<text text-anchor="middle" x="313.5264" y="-408.2351" font-family="Helvetica,sans-Serif" font-size="10.00" fill="#000000">83</text>
</a>
</g>
</g>
<!-- dir_8b842c0ad24262c95de16c440fd51527 -->
<g id="node15" class="node">
<title>dir_8b842c0ad24262c95de16c440fd51527</title>
<g id="a_node15"><a xlink:href="dir_8b842c0ad24262c95de16c440fd51527.html" target="_top" xlink:title="sensor">
<polygon fill="#ffffff" stroke="#ff0000" points="316,-324 262,-324 262,-288 316,-288 316,-324"/>
<text text-anchor="middle" x="289" y="-303.5" font-family="Helvetica,sans-Serif" font-size="10.00" fill="#000000">sensor</text>
</a>
</g>
</g>
<!-- dir_64d7bb605f27024d49af86070bd3f0b6&#45;&gt;dir_8b842c0ad24262c95de16c440fd51527 -->
<g id="edge34" class="edge">
<title>dir_64d7bb605f27024d49af86070bd3f0b6&#45;&gt;dir_8b842c0ad24262c95de16c440fd51527</title>
<path fill="none" stroke="#000000" d="M210.9836,-503.9169C202.3462,-494.0371 193.9834,-481.1563 190,-468 185.3635,-452.6865 187.4371,-447.7934 190,-432 195.4031,-398.7046 194.8593,-387.7743 214,-360 224.0183,-345.4629 239.0243,-332.7518 253.1073,-323.3199"/>
<polygon fill="#000000" stroke="#000000" points="255.1224,-326.1867 261.7037,-317.8839 251.3811,-320.2704 255.1224,-326.1867"/>
<g id="a_edge34&#45;headlabel"><a xlink:href="dir_000011_000014.html" target="_top" xlink:title="8">
<text text-anchor="middle" x="253.6017" y="-328.0076" font-family="Helvetica,sans-Serif" font-size="10.00" fill="#000000">8</text>
</a>
</g>
</g>
<!-- dir_6d1a5b6c73cd09063239376f47f02d88 -->
<g id="node16" class="node">
<title>dir_6d1a5b6c73cd09063239376f47f02d88</title>
<g id="a_node16"><a xlink:href="dir_6d1a5b6c73cd09063239376f47f02d88.html" target="_top" xlink:title="streaming">
<polygon fill="#ffffff" stroke="#ff0000" points="144,-180 78,-180 78,-144 144,-144 144,-180"/>
<text text-anchor="middle" x="111" y="-159.5" font-family="Helvetica,sans-Serif" font-size="10.00" fill="#000000">streaming</text>
</a>
</g>
</g>
<!-- dir_64d7bb605f27024d49af86070bd3f0b6&#45;&gt;dir_6d1a5b6c73cd09063239376f47f02d88 -->
<g id="edge38" class="edge">
<title>dir_64d7bb605f27024d49af86070bd3f0b6&#45;&gt;dir_6d1a5b6c73cd09063239376f47f02d88</title>
<path fill="none" stroke="#000000" d="M207.5769,-510.0111C182.1084,-498.3219 146.8279,-480.5242 138,-468 114.6369,-434.8547 123,-418.5518 123,-378 123,-378 123,-378 123,-306 123,-265.7369 118.2834,-219.3594 114.7642,-190.3596"/>
<polygon fill="#000000" stroke="#000000" points="118.2007,-189.6332 113.4864,-180.145 111.2548,-190.5021 118.2007,-189.6332"/>
<g id="a_edge38&#45;headlabel"><a xlink:href="dir_000011_000038.html" target="_top" xlink:title="1">
<text text-anchor="middle" x="121.4641" y="-190.3476" font-family="Helvetica,sans-Serif" font-size="10.00" fill="#000000">1</text>
</a>
</g>
</g>
<!-- dir_a8dbe3691941680fc0b6dad001059c22 -->
<g id="node17" class="node">
<title>dir_a8dbe3691941680fc0b6dad001059c22</title>
<g id="a_node17"><a xlink:href="dir_a8dbe3691941680fc0b6dad001059c22.html" target="_top" xlink:title="trafficmanager">
<polygon fill="#ffffff" stroke="#000000" points="388.5,-468 299.5,-468 299.5,-432 388.5,-432 388.5,-468"/>
<text text-anchor="middle" x="344" y="-447.5" font-family="Helvetica,sans-Serif" font-size="10.00" fill="#000000">trafficmanager</text>
</a>
</g>
</g>
<!-- dir_64d7bb605f27024d49af86070bd3f0b6&#45;&gt;dir_a8dbe3691941680fc0b6dad001059c22 -->
<g id="edge37" class="edge">
<title>dir_64d7bb605f27024d49af86070bd3f0b6&#45;&gt;dir_a8dbe3691941680fc0b6dad001059c22</title>
<path fill="none" stroke="#000000" d="M256.5529,-503.8314C269.4764,-494.7074 286.2383,-483.539 301.6633,-473.7449"/>
<polygon fill="#000000" stroke="#000000" points="303.9446,-476.4452 310.5517,-468.1628 300.2217,-470.5172 303.9446,-476.4452"/>
<g id="a_edge37&#45;headlabel"><a xlink:href="dir_000011_000018.html" target="_top" xlink:title="6">
<text text-anchor="middle" x="302.4105" y="-478.2613" font-family="Helvetica,sans-Serif" font-size="10.00" fill="#000000">6</text>
</a>
</g>
</g>
<!-- dir_8b032d9d353dba85c86dc5364d785bbe&#45;&gt;dir_cb41432ea01ddbb1240623c7c0fff85f -->
<g id="edge30" class="edge">
<title>dir_8b032d9d353dba85c86dc5364d785bbe&#45;&gt;dir_cb41432ea01ddbb1240623c7c0fff85f</title>
<path fill="none" stroke="#000000" d="M322.392,-79.9887C355.0423,-68.0556 410.0124,-47.965 448.4975,-33.8994"/>
<polygon fill="#000000" stroke="#000000" points="449.7122,-37.1819 457.9031,-30.4618 447.3093,-30.6073 449.7122,-37.1819"/>
<g id="a_edge30&#45;headlabel"><a xlink:href="dir_000023_000044.html" target="_top" xlink:title="1">
<text text-anchor="middle" x="447.3107" y="-38.5826" font-family="Helvetica,sans-Serif" font-size="10.00" fill="#000000">1</text>
</a>
</g>
</g>
<!-- dir_f5e43f88654384cf885b20b39b543425 -->
<g id="node4" class="node">
<title>dir_f5e43f88654384cf885b20b39b543425</title>
<g id="a_node4"><a xlink:href="dir_f5e43f88654384cf885b20b39b543425.html" target="_top" xlink:title="image">
<polygon fill="#ffffff" stroke="#000000" points="286,-396 232,-396 232,-360 286,-360 286,-396"/>
<text text-anchor="middle" x="259" y="-375.5" font-family="Helvetica,sans-Serif" font-size="10.00" fill="#000000">image</text>
</a>
</g>
</g>
<!-- dir_f5e43f88654384cf885b20b39b543425&#45;&gt;dir_8b842c0ad24262c95de16c440fd51527 -->
<g id="edge25" class="edge">
<title>dir_f5e43f88654384cf885b20b39b543425&#45;&gt;dir_8b842c0ad24262c95de16c440fd51527</title>
<path fill="none" stroke="#000000" d="M266.5703,-359.8314C269.8493,-351.9617 273.762,-342.5712 277.3945,-333.8533"/>
<polygon fill="#000000" stroke="#000000" points="280.7124,-334.9902 281.3278,-324.4133 274.2508,-332.2979 280.7124,-334.9902"/>
<g id="a_edge25&#45;headlabel"><a xlink:href="dir_000022_000014.html" target="_top" xlink:title="2">
<text text-anchor="middle" x="281.9507" y="-336.9003" font-family="Helvetica,sans-Serif" font-size="10.00" fill="#000000">2</text>
</a>
</g>
</g>
<!-- dir_a2af28fa3ae0e0a62585ff5a8c898ebe -->
<g id="node5" class="node">
<title>dir_a2af28fa3ae0e0a62585ff5a8c898ebe</title>
<g id="a_node5"><a xlink:href="dir_a2af28fa3ae0e0a62585ff5a8c898ebe.html" target="_top" xlink:title="multigpu">
<polygon fill="#ffffff" stroke="#000000" points="104,-252 44,-252 44,-216 104,-216 104,-252"/>
<text text-anchor="middle" x="74" y="-231.5" font-family="Helvetica,sans-Serif" font-size="10.00" fill="#000000">multigpu</text>
</a>
</g>
</g>
<!-- dir_a2af28fa3ae0e0a62585ff5a8c898ebe&#45;&gt;dir_a44fab28cda52915bea048e19f74f82b -->
<g id="edge31" class="edge">
<title>dir_a2af28fa3ae0e0a62585ff5a8c898ebe&#45;&gt;dir_a44fab28cda52915bea048e19f74f82b</title>
<path fill="none" stroke="#000000" d="M72.1002,-215.7623C69.5418,-191.201 64.9633,-147.2474 61.9535,-118.3541"/>
<polygon fill="#000000" stroke="#000000" points="65.4016,-117.6731 60.8843,-108.0896 58.4393,-118.3985 65.4016,-117.6731"/>
<g id="a_edge31&#45;headlabel"><a xlink:href="dir_000043_000054.html" target="_top" xlink:title="2">
<text text-anchor="middle" x="68.598" y="-118.4543" font-family="Helvetica,sans-Serif" font-size="10.00" fill="#000000">2</text>
</a>
</g>
</g>
<!-- dir_a2af28fa3ae0e0a62585ff5a8c898ebe&#45;&gt;dir_6d1a5b6c73cd09063239376f47f02d88 -->
<g id="edge32" class="edge">
<title>dir_a2af28fa3ae0e0a62585ff5a8c898ebe&#45;&gt;dir_6d1a5b6c73cd09063239376f47f02d88</title>
<path fill="none" stroke="#000000" d="M83.3367,-215.8314C87.4243,-207.8771 92.3104,-198.369 96.8309,-189.5723"/>
<polygon fill="#000000" stroke="#000000" points="100.0799,-190.9074 101.5376,-180.4133 93.8539,-187.7078 100.0799,-190.9074"/>
<g id="a_edge32&#45;headlabel"><a xlink:href="dir_000043_000038.html" target="_top" xlink:title="14">
<text text-anchor="middle" x="100.9623" y="-192.9022" font-family="Helvetica,sans-Serif" font-size="10.00" fill="#000000">14</text>
</a>
</g>
</g>
<!-- dir_ad0f87b2245230d21b267626b2c7750a&#45;&gt;dir_64d7bb605f27024d49af86070bd3f0b6 -->
<g id="edge3" class="edge">
<title>dir_ad0f87b2245230d21b267626b2c7750a&#45;&gt;dir_64d7bb605f27024d49af86070bd3f0b6</title>
<path fill="none" stroke="#000000" d="M240.976,-468.4133C241.7071,-476.0593 241.9203,-485.1084 241.6155,-493.5726"/>
<polygon fill="#000000" stroke="#000000" points="238.1048,-493.6264 240.9524,-503.8314 245.0902,-494.078 238.1048,-493.6264"/>
<g id="a_edge3&#45;headlabel"><a xlink:href="dir_000057_000011.html" target="_top" xlink:title="7">
<text text-anchor="middle" x="235.5032" y="-487.3562" font-family="Helvetica,sans-Serif" font-size="10.00" fill="#000000">7</text>
</a>
</g>
</g>
<!-- dir_ad0f87b2245230d21b267626b2c7750a&#45;&gt;dir_8b032d9d353dba85c86dc5364d785bbe -->
<g id="edge2" class="edge">
<title>dir_ad0f87b2245230d21b267626b2c7750a&#45;&gt;dir_8b032d9d353dba85c86dc5364d785bbe</title>
<path fill="none" stroke="#000000" d="M219.3144,-431.7307C211.6432,-421.7998 203.0054,-408.9297 198,-396 169.1185,-321.3953 179.2868,-293.7806 198,-216 205.9237,-183.0656 203.0228,-171.3563 223,-144 232.5834,-130.8767 246.2631,-119.504 259.1292,-110.6253"/>
<polygon fill="#000000" stroke="#000000" points="261.4186,-113.3086 267.8462,-104.8862 257.5692,-107.462 261.4186,-113.3086"/>
<g id="a_edge2&#45;headlabel"><a xlink:href="dir_000057_000023.html" target="_top" xlink:title="5">
<text text-anchor="middle" x="259.9776" y="-115.1567" font-family="Helvetica,sans-Serif" font-size="10.00" fill="#000000">5</text>
</a>
</g>
</g>
<!-- dir_ad0f87b2245230d21b267626b2c7750a&#45;&gt;dir_83201f30ace02cdf218980110872f8a7 -->
<g id="edge1" class="edge">
<title>dir_ad0f87b2245230d21b267626b2c7750a&#45;&gt;dir_83201f30ace02cdf218980110872f8a7</title>
<path fill="none" stroke="#000000" d="M259.2249,-431.8314C271.1628,-422.8779 285.7256,-411.9558 298.606,-402.2955"/>
<polygon fill="#000000" stroke="#000000" points="300.8829,-404.9629 306.7829,-396.1628 296.6829,-399.3629 300.8829,-404.9629"/>
<g id="a_edge1&#45;headlabel"><a xlink:href="dir_000057_000010.html" target="_top" xlink:title="6">
<text text-anchor="middle" x="299.7108" y="-406.891" font-family="Helvetica,sans-Serif" font-size="10.00" fill="#000000">6</text>
</a>
</g>
</g>
<!-- dir_a02f1db122f1bf0661014bee93740912&#45;&gt;dir_8b032d9d353dba85c86dc5364d785bbe -->
<g id="edge44" class="edge">
<title>dir_a02f1db122f1bf0661014bee93740912&#45;&gt;dir_8b032d9d353dba85c86dc5364d785bbe</title>
<path fill="none" stroke="#000000" d="M512.6136,-215.773C504.5779,-195.4218 488.8713,-162.8722 465,-144 426.1971,-113.3231 369.6324,-99.905 332.5777,-94.1513"/>
<polygon fill="#000000" stroke="#000000" points="332.6067,-90.6196 322.2106,-92.6623 331.6114,-97.5485 332.6067,-90.6196"/>
<g id="a_edge44&#45;headlabel"><a xlink:href="dir_000047_000023.html" target="_top" xlink:title="1">
<text text-anchor="middle" x="336.5684" y="-85.8202" font-family="Helvetica,sans-Serif" font-size="10.00" fill="#000000">1</text>
</a>
</g>
</g>
<!-- dir_a02f1db122f1bf0661014bee93740912&#45;&gt;dir_8afc3b5d71d319c27bc8bd38d925daae -->
<g id="edge42" class="edge">
<title>dir_a02f1db122f1bf0661014bee93740912&#45;&gt;dir_8afc3b5d71d319c27bc8bd38d925daae</title>
<path fill="none" stroke="#000000" d="M496.2892,-215.8314C485.204,-206.9632 471.7046,-196.1637 459.7148,-186.5718"/>
<polygon fill="#000000" stroke="#000000" points="461.6987,-183.6768 451.7035,-180.1628 457.3258,-189.1429 461.6987,-183.6768"/>
<g id="a_edge42&#45;headlabel"><a xlink:href="dir_000047_000046.html" target="_top" xlink:title="15">
<text text-anchor="middle" x="466.2793" y="-181.2052" font-family="Helvetica,sans-Serif" font-size="10.00" fill="#000000">15</text>
</a>
</g>
</g>
<!-- dir_a02f1db122f1bf0661014bee93740912&#45;&gt;dir_cb41432ea01ddbb1240623c7c0fff85f -->
<g id="edge43" class="edge">
<title>dir_a02f1db122f1bf0661014bee93740912&#45;&gt;dir_cb41432ea01ddbb1240623c7c0fff85f</title>
<path fill="none" stroke="#000000" d="M516.7444,-215.9555C512.0393,-178.3144 501.1483,-91.1867 495.5156,-46.1246"/>
<polygon fill="#000000" stroke="#000000" points="498.9815,-45.6337 494.2681,-36.1451 492.0356,-46.502 498.9815,-45.6337"/>
<g id="a_edge43&#45;headlabel"><a xlink:href="dir_000047_000044.html" target="_top" xlink:title="11">
<text text-anchor="middle" x="502.2447" y="-46.3484" font-family="Helvetica,sans-Serif" font-size="10.00" fill="#000000">11</text>
</a>
</g>
</g>
<!-- dir_ba5554cd20e2d3b81742218af28f1632 -->
<g id="node8" class="node">
<title>dir_ba5554cd20e2d3b81742218af28f1632</title>
<g id="a_node8"><a xlink:href="dir_ba5554cd20e2d3b81742218af28f1632.html" target="_top" xlink:title="pointcloud">
<polygon fill="#ffffff" stroke="#000000" points="184,-540 116,-540 116,-504 184,-504 184,-540"/>
<text text-anchor="middle" x="150" y="-519.5" font-family="Helvetica,sans-Serif" font-size="10.00" fill="#000000">pointcloud</text>
</a>
</g>
</g>
<!-- dir_1d6fac9cb22f8ab199e8be0190976796 -->
<g id="node10" class="node">
<title>dir_1d6fac9cb22f8ab199e8be0190976796</title>
<g id="a_node10"><a xlink:href="dir_1d6fac9cb22f8ab199e8be0190976796.html" target="_top" xlink:title="pytorch">
<polygon fill="#ffffff" stroke="#000000" points="85,-540 31,-540 31,-504 85,-504 85,-540"/>
<text text-anchor="middle" x="58" y="-519.5" font-family="Helvetica,sans-Serif" font-size="10.00" fill="#000000">pytorch</text>
</a>
</g>
</g>
<!-- dir_8afc3b5d71d319c27bc8bd38d925daae&#45;&gt;dir_8b032d9d353dba85c86dc5364d785bbe -->
<g id="edge20" class="edge">
<title>dir_8afc3b5d71d319c27bc8bd38d925daae&#45;&gt;dir_8b032d9d353dba85c86dc5364d785bbe</title>
<path fill="none" stroke="#000000" d="M401.8831,-147.4297C381.4499,-136.4507 353.2356,-121.2908 330.9259,-109.3035"/>
<polygon fill="#000000" stroke="#000000" points="332.5421,-106.1987 322.0766,-104.5486 329.2289,-112.3649 332.5421,-106.1987"/>
<g id="a_edge20&#45;headlabel"><a xlink:href="dir_000046_000023.html" target="_top" xlink:title="34">
<text text-anchor="middle" x="337.0525" y="-102.8989" font-family="Helvetica,sans-Serif" font-size="10.00" fill="#000000">34</text>
</a>
</g>
</g>
<!-- dir_8afc3b5d71d319c27bc8bd38d925daae&#45;&gt;dir_83201f30ace02cdf218980110872f8a7 -->
<g id="edge19" class="edge">
<title>dir_8afc3b5d71d319c27bc8bd38d925daae&#45;&gt;dir_83201f30ace02cdf218980110872f8a7</title>
<path fill="none" stroke="#000000" d="M429.0186,-180.1918C428.4826,-198.8128 426.0763,-228.2996 417,-252 402.3632,-290.2203 374.0605,-328.2098 353.9237,-352.3206"/>
<polygon fill="#000000" stroke="#000000" points="351.2515,-350.0602 347.4393,-359.9455 356.584,-354.5951 351.2515,-350.0602"/>
<g id="a_edge19&#45;headlabel"><a xlink:href="dir_000046_000010.html" target="_top" xlink:title="3">
<text text-anchor="middle" x="351.4173" y="-342.9826" font-family="Helvetica,sans-Serif" font-size="10.00" fill="#000000">3</text>
</a>
</g>
</g>
<!-- dir_8afc3b5d71d319c27bc8bd38d925daae&#45;&gt;dir_cb41432ea01ddbb1240623c7c0fff85f -->
<g id="edge18" class="edge">
<title>dir_8afc3b5d71d319c27bc8bd38d925daae&#45;&gt;dir_cb41432ea01ddbb1240623c7c0fff85f</title>
<path fill="none" stroke="#000000" d="M436.979,-143.7623C447.8192,-118.9846 467.2938,-74.4714 479.9277,-45.5939"/>
<polygon fill="#000000" stroke="#000000" points="483.2841,-46.6541 484.0858,-36.0896 476.871,-43.8483 483.2841,-46.6541"/>
<g id="a_edge18&#45;headlabel"><a xlink:href="dir_000046_000044.html" target="_top" xlink:title="2">
<text text-anchor="middle" x="484.4446" y="-48.5853" font-family="Helvetica,sans-Serif" font-size="10.00" fill="#000000">2</text>
</a>
</g>
</g>
<!-- dir_087ce8304d10c4897e4acbeac1a6fcc8 -->
<g id="node12" class="node">
<title>dir_087ce8304d10c4897e4acbeac1a6fcc8</title>
<g id="a_node12"><a xlink:href="dir_087ce8304d10c4897e4acbeac1a6fcc8.html" target="_top" xlink:title="ros2">
<polygon fill="#ffffff" stroke="#ff0000" points="276,-252 222,-252 222,-216 276,-216 276,-252"/>
<text text-anchor="middle" x="249" y="-231.5" font-family="Helvetica,sans-Serif" font-size="10.00" fill="#000000">ros2</text>
</a>
</g>
</g>
<!-- dir_087ce8304d10c4897e4acbeac1a6fcc8&#45;&gt;dir_8b032d9d353dba85c86dc5364d785bbe -->
<g id="edge11" class="edge">
<title>dir_087ce8304d10c4897e4acbeac1a6fcc8&#45;&gt;dir_8b032d9d353dba85c86dc5364d785bbe</title>
<path fill="none" stroke="#000000" d="M254.8259,-215.7623C262.7065,-191.0928 276.8365,-146.8598 286.0642,-117.9731"/>
<polygon fill="#000000" stroke="#000000" points="289.5124,-118.6805 289.2214,-108.0896 282.8443,-116.5503 289.5124,-118.6805"/>
<g id="a_edge11&#45;headlabel"><a xlink:href="dir_000025_000023.html" target="_top" xlink:title="3">
<text text-anchor="middle" x="291.1232" y="-120.4686" font-family="Helvetica,sans-Serif" font-size="10.00" fill="#000000">3</text>
</a>
</g>
</g>
<!-- dir_087ce8304d10c4897e4acbeac1a6fcc8&#45;&gt;dir_8b842c0ad24262c95de16c440fd51527 -->
<g id="edge9" class="edge">
<title>dir_087ce8304d10c4897e4acbeac1a6fcc8&#45;&gt;dir_8b842c0ad24262c95de16c440fd51527</title>
<path fill="none" stroke="#000000" d="M265.2056,-252.4133C270.4058,-260.3991 275.8913,-269.9155 280.4037,-278.6975"/>
<polygon fill="#000000" stroke="#000000" points="277.3291,-280.3778 284.8587,-287.8314 283.6206,-277.3091 277.3291,-280.3778"/>
<g id="a_edge9&#45;headlabel"><a xlink:href="dir_000025_000014.html" target="_top" xlink:title="9">
<text text-anchor="middle" x="273.2014" y="-275.8917" font-family="Helvetica,sans-Serif" font-size="10.00" fill="#000000">9</text>
</a>
</g>
</g>
<!-- dir_087ce8304d10c4897e4acbeac1a6fcc8&#45;&gt;dir_6d1a5b6c73cd09063239376f47f02d88 -->
<g id="edge10" class="edge">
<title>dir_087ce8304d10c4897e4acbeac1a6fcc8&#45;&gt;dir_6d1a5b6c73cd09063239376f47f02d88</title>
<path fill="none" stroke="#000000" d="M221.7356,-219.7751C202.1289,-209.5455 175.3205,-195.5585 152.9923,-183.909"/>
<polygon fill="#000000" stroke="#000000" points="154.5338,-180.7656 144.049,-179.2429 151.2958,-186.9717 154.5338,-180.7656"/>
<g id="a_edge10&#45;headlabel"><a xlink:href="dir_000025_000038.html" target="_top" xlink:title="1">
<text text-anchor="middle" x="159.0341" y="-177.411" font-family="Helvetica,sans-Serif" font-size="10.00" fill="#000000">1</text>
</a>
</g>
</g>
<!-- dir_83201f30ace02cdf218980110872f8a7&#45;&gt;dir_8b032d9d353dba85c86dc5364d785bbe -->
<g id="edge29" class="edge">
<title>dir_83201f30ace02cdf218980110872f8a7&#45;&gt;dir_8b032d9d353dba85c86dc5364d785bbe</title>
<path fill="none" stroke="#000000" d="M330.2295,-359.6892C329.3572,-341.476 327.6955,-312.7526 325,-288 318.3773,-227.184 306.6858,-156.4293 300.0222,-118.1294"/>
<polygon fill="#000000" stroke="#000000" points="303.4596,-117.4675 298.2844,-108.2227 296.5649,-118.677 303.4596,-117.4675"/>
<g id="a_edge29&#45;headlabel"><a xlink:href="dir_000010_000023.html" target="_top" xlink:title="16">
<text text-anchor="middle" x="306.8772" y="-118.0175" font-family="Helvetica,sans-Serif" font-size="10.00" fill="#000000">16</text>
</a>
</g>
</g>
<!-- dir_83201f30ace02cdf218980110872f8a7&#45;&gt;dir_8b842c0ad24262c95de16c440fd51527 -->
<g id="edge27" class="edge">
<title>dir_83201f30ace02cdf218980110872f8a7&#45;&gt;dir_8b842c0ad24262c95de16c440fd51527</title>
<path fill="none" stroke="#000000" d="M314.4492,-359.8314C309.0341,-351.8771 303.2776,-342.369 298.501,-333.5723"/>
<polygon fill="#000000" stroke="#000000" points="301.4672,-331.6884 293.7651,-324.4133 295.2492,-334.9036 301.4672,-331.6884"/>
<g id="a_edge27&#45;headlabel"><a xlink:href="dir_000010_000014.html" target="_top" xlink:title="1">
<text text-anchor="middle" x="305.6402" y="-331.0774" font-family="Helvetica,sans-Serif" font-size="10.00" fill="#000000">1</text>
</a>
</g>
</g>
<!-- dir_83201f30ace02cdf218980110872f8a7&#45;&gt;dir_6d1a5b6c73cd09063239376f47f02d88 -->
<g id="edge28" class="edge">
<title>dir_83201f30ace02cdf218980110872f8a7&#45;&gt;dir_6d1a5b6c73cd09063239376f47f02d88</title>
<path fill="none" stroke="#000000" d="M303.8,-361.5243C288.2333,-351.5324 268.7333,-338.0324 253,-324 204.6258,-280.8553 156.6673,-221.879 130.7332,-188.2817"/>
<polygon fill="#000000" stroke="#000000" points="133.4874,-186.1215 124.6274,-180.3119 127.9306,-190.3786 133.4874,-186.1215"/>
<g id="a_edge28&#45;headlabel"><a xlink:href="dir_000010_000038.html" target="_top" xlink:title="2">
<text text-anchor="middle" x="137.9273" y="-184.7483" font-family="Helvetica,sans-Serif" font-size="10.00" fill="#000000">2</text>
</a>
</g>
</g>
<!-- dir_4ec6c576fb70278fb3ee02e044838f82 -->
<g id="node14" class="node">
<title>dir_4ec6c576fb70278fb3ee02e044838f82</title>
<g id="a_node14"><a xlink:href="dir_4ec6c576fb70278fb3ee02e044838f82.html" target="_top" xlink:title="rss">
<polygon fill="#ffffff" stroke="#000000" points="408,-252 354,-252 354,-216 408,-216 408,-252"/>
<text text-anchor="middle" x="381" y="-231.5" font-family="Helvetica,sans-Serif" font-size="10.00" fill="#000000">rss</text>
</a>
</g>
</g>
<!-- dir_4ec6c576fb70278fb3ee02e044838f82&#45;&gt;dir_64d7bb605f27024d49af86070bd3f0b6 -->
<g id="edge7" class="edge">
<title>dir_4ec6c576fb70278fb3ee02e044838f82&#45;&gt;dir_64d7bb605f27024d49af86070bd3f0b6</title>
<path fill="none" stroke="#000000" d="M389.5168,-252.2537C407.9272,-294.6965 446.0515,-401.4614 398,-468 383.0945,-488.6402 315.5159,-505.777 272.1882,-514.8969"/>
<polygon fill="#000000" stroke="#000000" points="271.366,-511.4926 262.2749,-516.9334 272.7746,-518.3494 271.366,-511.4926"/>
<g id="a_edge7&#45;headlabel"><a xlink:href="dir_000066_000011.html" target="_top" xlink:title="12">
<text text-anchor="middle" x="274.3158" y="-505.4882" font-family="Helvetica,sans-Serif" font-size="10.00" fill="#000000">12</text>
</a>
</g>
</g>
<!-- dir_4ec6c576fb70278fb3ee02e044838f82&#45;&gt;dir_8afc3b5d71d319c27bc8bd38d925daae -->
<g id="edge5" class="edge">
<title>dir_4ec6c576fb70278fb3ee02e044838f82&#45;&gt;dir_8afc3b5d71d319c27bc8bd38d925daae</title>
<path fill="none" stroke="#000000" d="M393.1124,-215.8314C398.5281,-207.7079 405.0242,-197.9637 410.9921,-189.0118"/>
<polygon fill="#000000" stroke="#000000" points="414.0896,-190.6753 416.7245,-180.4133 408.2653,-186.7923 414.0896,-190.6753"/>
<g id="a_edge5&#45;headlabel"><a xlink:href="dir_000066_000046.html" target="_top" xlink:title="1">
<text text-anchor="middle" x="414.4581" y="-192.7411" font-family="Helvetica,sans-Serif" font-size="10.00" fill="#000000">1</text>
</a>
</g>
</g>
<!-- dir_4ec6c576fb70278fb3ee02e044838f82&#45;&gt;dir_83201f30ace02cdf218980110872f8a7 -->
<g id="edge6" class="edge">
<title>dir_4ec6c576fb70278fb3ee02e044838f82&#45;&gt;dir_83201f30ace02cdf218980110872f8a7</title>
<path fill="none" stroke="#000000" d="M374.7189,-252.0896C366.1429,-276.7884 350.6898,-321.2933 340.6413,-350.2331"/>
<polygon fill="#000000" stroke="#000000" points="337.3064,-349.1675 337.3325,-359.7623 343.9191,-351.4636 337.3064,-349.1675"/>
<g id="a_edge6&#45;headlabel"><a xlink:href="dir_000066_000010.html" target="_top" xlink:title="2">
<text text-anchor="middle" x="335.8032" y="-342.3405" font-family="Helvetica,sans-Serif" font-size="10.00" fill="#000000">2</text>
</a>
</g>
</g>
<!-- dir_4ec6c576fb70278fb3ee02e044838f82&#45;&gt;dir_8b842c0ad24262c95de16c440fd51527 -->
<g id="edge4" class="edge">
<title>dir_4ec6c576fb70278fb3ee02e044838f82&#45;&gt;dir_8b842c0ad24262c95de16c440fd51527</title>
<path fill="none" stroke="#000000" d="M363.7918,-252.1222C352.6369,-261.5757 337.8661,-273.2335 324.3492,-283.2844"/>
<polygon fill="#000000" stroke="#000000" points="322.1362,-280.5669 316.1387,-289.3008 326.2737,-286.2133 322.1362,-280.5669"/>
<g id="a_edge4&#45;headlabel"><a xlink:href="dir_000066_000014.html" target="_top" xlink:title="1">
<text text-anchor="middle" x="323.3575" y="-273.6521" font-family="Helvetica,sans-Serif" font-size="10.00" fill="#000000">1</text>
</a>
</g>
</g>
<!-- dir_8b842c0ad24262c95de16c440fd51527&#45;&gt;dir_64d7bb605f27024d49af86070bd3f0b6 -->
<g id="edge17" class="edge">
<title>dir_8b842c0ad24262c95de16c440fd51527&#45;&gt;dir_64d7bb605f27024d49af86070bd3f0b6</title>
<path fill="none" stroke="#000000" d="M268.2792,-324.0983C256.2101,-333.446 241.7452,-345.8591 232,-360 212.8593,-387.7743 213.4031,-398.7046 208,-432 205.4371,-447.7934 203.3635,-452.6865 208,-468 210.9253,-477.6617 216.2124,-487.1747 221.4641,-495.4598"/>
<polygon fill="#000000" stroke="#000000" points="218.6113,-497.4916 227.0354,-503.9169 224.4569,-493.6407 218.6113,-497.4916"/>
<g id="a_edge17&#45;headlabel"><a xlink:href="dir_000014_000011.html" target="_top" xlink:title="5">
<text text-anchor="middle" x="214.2629" y="-493.5517" font-family="Helvetica,sans-Serif" font-size="10.00" fill="#000000">5</text>
</a>
</g>
</g>
<!-- dir_8b842c0ad24262c95de16c440fd51527&#45;&gt;dir_8b032d9d353dba85c86dc5364d785bbe -->
<g id="edge16" class="edge">
<title>dir_8b842c0ad24262c95de16c440fd51527&#45;&gt;dir_8b032d9d353dba85c86dc5364d785bbe</title>
<path fill="none" stroke="#000000" d="M289.5012,-287.9555C290.5446,-250.3938 292.9568,-163.5541 294.2108,-118.4103"/>
<polygon fill="#000000" stroke="#000000" points="297.7169,-118.2384 294.496,-108.1451 290.7196,-118.044 297.7169,-118.2384"/>
<g id="a_edge16&#45;headlabel"><a xlink:href="dir_000014_000023.html" target="_top" xlink:title="9">
<text text-anchor="middle" x="300.4553" y="-119.4105" font-family="Helvetica,sans-Serif" font-size="10.00" fill="#000000">9</text>
</a>
</g>
</g>
<!-- dir_8b842c0ad24262c95de16c440fd51527&#45;&gt;dir_8afc3b5d71d319c27bc8bd38d925daae -->
<g id="edge14" class="edge">
<title>dir_8b842c0ad24262c95de16c440fd51527&#45;&gt;dir_8afc3b5d71d319c27bc8bd38d925daae</title>
<path fill="none" stroke="#000000" d="M297.2916,-287.8131C306.7923,-268.3874 323.817,-237.4976 345,-216 358.8338,-201.9608 376.9469,-189.7412 392.8103,-180.4939"/>
<polygon fill="#000000" stroke="#000000" points="394.8497,-183.362 401.8411,-175.4014 391.4113,-177.2647 394.8497,-183.362"/>
<g id="a_edge14&#45;headlabel"><a xlink:href="dir_000014_000046.html" target="_top" xlink:title="1">
<text text-anchor="middle" x="393.1132" y="-185.1008" font-family="Helvetica,sans-Serif" font-size="10.00" fill="#000000">1</text>
</a>
</g>
</g>
<!-- dir_8b842c0ad24262c95de16c440fd51527&#45;&gt;dir_087ce8304d10c4897e4acbeac1a6fcc8 -->
<g id="edge13" class="edge">
<title>dir_8b842c0ad24262c95de16c440fd51527&#45;&gt;dir_087ce8304d10c4897e4acbeac1a6fcc8</title>
<path fill="none" stroke="#000000" d="M272.9539,-287.8314C267.7597,-279.8771 262.2673,-270.369 257.7351,-261.5723"/>
<polygon fill="#000000" stroke="#000000" points="260.7926,-259.8574 253.2536,-252.4133 254.5049,-262.934 260.7926,-259.8574"/>
<g id="a_edge13&#45;headlabel"><a xlink:href="dir_000014_000025.html" target="_top" xlink:title="2">
<text text-anchor="middle" x="264.9227" y="-259.3383" font-family="Helvetica,sans-Serif" font-size="10.00" fill="#000000">2</text>
</a>
</g>
</g>
<!-- dir_8b842c0ad24262c95de16c440fd51527&#45;&gt;dir_83201f30ace02cdf218980110872f8a7 -->
<g id="edge15" class="edge">
<title>dir_8b842c0ad24262c95de16c440fd51527&#45;&gt;dir_83201f30ace02cdf218980110872f8a7</title>
<path fill="none" stroke="#000000" d="M305.7171,-324.4133C311.1391,-332.3991 316.8889,-341.9155 321.6453,-350.6975"/>
<polygon fill="#000000" stroke="#000000" points="318.6609,-352.5467 326.354,-359.8314 324.8827,-349.3392 318.6609,-352.5467"/>
<g id="a_edge15&#45;headlabel"><a xlink:href="dir_000014_000010.html" target="_top" xlink:title="17">
<text text-anchor="middle" x="314.4901" y="-348.1527" font-family="Helvetica,sans-Serif" font-size="10.00" fill="#000000">17</text>
</a>
</g>
</g>
<!-- dir_8b842c0ad24262c95de16c440fd51527&#45;&gt;dir_4ec6c576fb70278fb3ee02e044838f82 -->
<g id="edge12" class="edge">
<title>dir_8b842c0ad24262c95de16c440fd51527&#45;&gt;dir_4ec6c576fb70278fb3ee02e044838f82</title>
<path fill="none" stroke="#000000" d="M306.2631,-287.8314C317.4203,-278.3787 332.1794,-266.7316 345.6828,-256.6918"/>
<polygon fill="#000000" stroke="#000000" points="347.8869,-259.4158 353.8849,-250.6822 343.7497,-253.7692 347.8869,-259.4158"/>
<g id="a_edge12&#45;headlabel"><a xlink:href="dir_000014_000066.html" target="_top" xlink:title="1">
<text text-anchor="middle" x="346.6654" y="-261.3306" font-family="Helvetica,sans-Serif" font-size="10.00" fill="#000000">1</text>
</a>
</g>
</g>
<!-- dir_6d1a5b6c73cd09063239376f47f02d88&#45;&gt;dir_a44fab28cda52915bea048e19f74f82b -->
<g id="edge26" class="edge">
<title>dir_6d1a5b6c73cd09063239376f47f02d88&#45;&gt;dir_a44fab28cda52915bea048e19f74f82b</title>
<path fill="none" stroke="#000000" d="M97.8782,-143.8314C91.9501,-135.6232 84.8271,-125.7606 78.3067,-116.7323"/>
<polygon fill="#000000" stroke="#000000" points="80.9908,-114.4708 72.2985,-108.4133 75.316,-118.5693 80.9908,-114.4708"/>
<g id="a_edge26&#45;headlabel"><a xlink:href="dir_000038_000054.html" target="_top" xlink:title="2">
<text text-anchor="middle" x="85.3971" y="-113.2226" font-family="Helvetica,sans-Serif" font-size="10.00" fill="#000000">2</text>
</a>
</g>
</g>
<!-- dir_a8dbe3691941680fc0b6dad001059c22&#45;&gt;dir_64d7bb605f27024d49af86070bd3f0b6 -->
<g id="edge24" class="edge">
<title>dir_a8dbe3691941680fc0b6dad001059c22&#45;&gt;dir_64d7bb605f27024d49af86070bd3f0b6</title>
<path fill="none" stroke="#000000" d="M322.6382,-468.0336C307.8195,-478.5032 287.8905,-491.6988 270.7228,-502.4211"/>
<polygon fill="#000000" stroke="#000000" points="268.7141,-499.5478 262.0386,-507.7751 272.3877,-505.5063 268.7141,-499.5478"/>
<g id="a_edge24&#45;headlabel"><a xlink:href="dir_000018_000011.html" target="_top" xlink:title="31">
<text text-anchor="middle" x="270.2838" y="-492.7445" font-family="Helvetica,sans-Serif" font-size="10.00" fill="#000000">31</text>
</a>
</g>
</g>
<!-- dir_a8dbe3691941680fc0b6dad001059c22&#45;&gt;dir_8b032d9d353dba85c86dc5364d785bbe -->
<g id="edge23" class="edge">
<title>dir_a8dbe3691941680fc0b6dad001059c22&#45;&gt;dir_8b032d9d353dba85c86dc5364d785bbe</title>
<path fill="none" stroke="#000000" d="M299.2748,-435.4895C268.8198,-424.6427 232.392,-409.4325 223,-396 177.0877,-330.3356 190.2063,-292.8128 213,-216 224.3574,-177.7266 251.4186,-140.2057 271.3621,-116.2028"/>
<polygon fill="#000000" stroke="#000000" points="274.2721,-118.1834 278.0821,-108.2973 268.9387,-113.6497 274.2721,-118.1834"/>
<g id="a_edge23&#45;headlabel"><a xlink:href="dir_000018_000023.html" target="_top" xlink:title="11">
<text text-anchor="middle" x="274.1073" y="-120.2611" font-family="Helvetica,sans-Serif" font-size="10.00" fill="#000000">11</text>
</a>
</g>
</g>
<!-- dir_a8dbe3691941680fc0b6dad001059c22&#45;&gt;dir_8afc3b5d71d319c27bc8bd38d925daae -->
<g id="edge21" class="edge">
<title>dir_a8dbe3691941680fc0b6dad001059c22&#45;&gt;dir_8afc3b5d71d319c27bc8bd38d925daae</title>
<path fill="none" stroke="#000000" d="M354.1501,-431.8941C372.5922,-397.9021 411.0713,-321.6685 426,-252 430.3607,-231.6496 430.9974,-208.1266 430.6039,-190.2338"/>
<polygon fill="#000000" stroke="#000000" points="434.0992,-190.0335 430.2619,-180.1581 427.1033,-190.2711 434.0992,-190.0335"/>
<g id="a_edge21&#45;headlabel"><a xlink:href="dir_000018_000046.html" target="_top" xlink:title="4">
<text text-anchor="middle" x="437.0588" y="-191.0298" font-family="Helvetica,sans-Serif" font-size="10.00" fill="#000000">4</text>
</a>
</g>
</g>
<!-- dir_a8dbe3691941680fc0b6dad001059c22&#45;&gt;dir_83201f30ace02cdf218980110872f8a7 -->
<g id="edge22" class="edge">
<title>dir_a8dbe3691941680fc0b6dad001059c22&#45;&gt;dir_83201f30ace02cdf218980110872f8a7</title>
<path fill="none" stroke="#000000" d="M340.7196,-431.8314C339.3292,-424.131 337.6759,-414.9743 336.1308,-406.4166"/>
<polygon fill="#000000" stroke="#000000" points="339.5458,-405.6322 334.3246,-396.4133 332.6572,-406.8761 339.5458,-405.6322"/>
<g id="a_edge22&#45;headlabel"><a xlink:href="dir_000018_000010.html" target="_top" xlink:title="12">
<text text-anchor="middle" x="342.9785" y="-406.1652" font-family="Helvetica,sans-Serif" font-size="10.00" fill="#000000">12</text>
</a>
</g>
</g>
</g>
</svg>
