<?xml version="1.0" encoding="UTF-8" standalone="no"?>
<!DOCTYPE svg PUBLIC "-//W3C//DTD SVG 1.1//EN"
 "http://www.w3.org/Graphics/SVG/1.1/DTD/svg11.dtd">
<!-- Generated by graphviz version 2.40.1 (20161225.0304)
 -->
<!-- Title: client Pages: 1 -->
<svg width="545pt" height="447pt"
 viewBox="0.00 0.00 545.00 447.00" xmlns="http://www.w3.org/2000/svg" xmlns:xlink="http://www.w3.org/1999/xlink">
<g id="graph0" class="graph" transform="scale(1 1) rotate(0) translate(4 443)">
<title>client</title>
<polygon fill="#ffffff" stroke="transparent" points="-4,4 -4,-443 541,-443 541,4 -4,4"/>
<g id="clust1" class="cluster">
<title>clusterdir_b14cdd661f9a7048a44f1771cd402401</title>
<g id="a_clust1"><a xlink:href="dir_b14cdd661f9a7048a44f1771cd402401.html" target="_top" xlink:title="carla">
<polygon fill="#ddddee" stroke="#000000" points="389,-272 389,-431 475,-431 475,-272 389,-272"/>
<text text-anchor="middle" x="432" y="-419" font-family="Helvetica,sans-Serif" font-size="10.00" fill="#000000">carla</text>
</a>
</g>
</g>
<g id="clust2" class="cluster">
<title>clusterdir_64d7bb605f27024d49af86070bd3f0b6</title>
<g id="a_clust2"><a xlink:href="dir_64d7bb605f27024d49af86070bd3f0b6.html" target="_top">
<polygon fill="#eeeeff" stroke="#000000" points="397,-280 397,-404 467,-404 467,-280 397,-280"/>
</a>
</g>
</g>
<!-- dir_64d7bb605f27024d49af86070bd3f0b6 -->
<g id="node1" class="node">
<title>dir_64d7bb605f27024d49af86070bd3f0b6</title>
<text text-anchor="middle" x="432" y="-375.5" font-family="Helvetica,sans-Serif" font-size="10.00" fill="#000000">client</text>
</g>
<!-- dir_f9a24d883fd04dccdcdb897ae270d193 -->
<g id="node2" class="node">
<title>dir_f9a24d883fd04dccdcdb897ae270d193</title>
<g id="a_node2"><a xlink:href="dir_f9a24d883fd04dccdcdb897ae270d193.html" target="_top" xlink:title="detail">
<polygon fill="#ffffff" stroke="#000000" points="459,-324 405,-324 405,-288 459,-288 459,-324"/>
<text text-anchor="middle" x="432" y="-303.5" font-family="Helvetica,sans-Serif" font-size="10.00" fill="#000000">detail</text>
</a>
</g>
</g>
<!-- dir_64d7bb605f27024d49af86070bd3f0b6&#45;&gt;dir_f9a24d883fd04dccdcdb897ae270d193 -->
<g id="edge33" class="edge">
<title>dir_64d7bb605f27024d49af86070bd3f0b6&#45;&gt;dir_f9a24d883fd04dccdcdb897ae270d193</title>
<path fill="none" stroke="#000000" d="M432,-359.8314C432,-352.131 432,-342.9743 432,-334.4166"/>
<polygon fill="#000000" stroke="#000000" points="435.5001,-334.4132 432,-324.4133 428.5001,-334.4133 435.5001,-334.4132"/>
<g id="a_edge33&#45;headlabel"><a xlink:href="dir_000011_000016.html" target="_top" xlink:title="20">
<text text-anchor="middle" x="438.3393" y="-335.5079" font-family="Helvetica,sans-Serif" font-size="10.00" fill="#000000">20</text>
</a>
</g>
</g>
<!-- dir_8b842c0ad24262c95de16c440fd51527 -->
<g id="node4" class="node">
<title>dir_8b842c0ad24262c95de16c440fd51527</title>
<g id="a_node4"><a xlink:href="dir_8b842c0ad24262c95de16c440fd51527.html" target="_top" xlink:title="sensor">
<polygon fill="#ffffff" stroke="#ff0000" points="349,-324 295,-324 295,-288 349,-288 349,-324"/>
<text text-anchor="middle" x="322" y="-303.5" font-family="Helvetica,sans-Serif" font-size="10.00" fill="#000000">sensor</text>
</a>
</g>
</g>
<!-- dir_64d7bb605f27024d49af86070bd3f0b6&#45;&gt;dir_8b842c0ad24262c95de16c440fd51527 -->
<g id="edge27" class="edge">
<title>dir_64d7bb605f27024d49af86070bd3f0b6&#45;&gt;dir_8b842c0ad24262c95de16c440fd51527</title>
<path fill="none" stroke="#000000" d="M404.809,-360.2022C390.6622,-350.9425 373.1843,-339.5025 357.937,-329.5224"/>
<polygon fill="#000000" stroke="#000000" points="359.5433,-326.3907 349.2594,-323.8425 355.7097,-332.2476 359.5433,-326.3907"/>
<g id="a_edge27&#45;headlabel"><a xlink:href="dir_000011_000014.html" target="_top" xlink:title="8">
<text text-anchor="middle" x="364.1058" y="-323.4837" font-family="Helvetica,sans-Serif" font-size="10.00" fill="#000000">8</text>
</a>
</g>
</g>
<!-- dir_a44fab28cda52915bea048e19f74f82b -->
<g id="node5" class="node">
<title>dir_a44fab28cda52915bea048e19f74f82b</title>
<g id="a_node5"><a xlink:href="dir_a44fab28cda52915bea048e19f74f82b.html" target="_top" xlink:title="profiler">
<polygon fill="none" stroke="#000000" points="470,-36 416,-36 416,0 470,0 470,-36"/>
<text text-anchor="middle" x="443" y="-15.5" font-family="Helvetica,sans-Serif" font-size="10.00" fill="#000000">profiler</text>
</a>
</g>
</g>
<!-- dir_64d7bb605f27024d49af86070bd3f0b6&#45;&gt;dir_a44fab28cda52915bea048e19f74f82b -->
<g id="edge28" class="edge">
<title>dir_64d7bb605f27024d49af86070bd3f0b6&#45;&gt;dir_a44fab28cda52915bea048e19f74f82b</title>
<path fill="none" stroke="#000000" d="M404.9984,-375.8898C320.5232,-369.0739 65.1569,-346.7651 36,-324 2.0431,-297.4872 0,-277.0813 0,-234 0,-234 0,-234 0,-162 0,-76.8871 299.4951,-34.3861 405.9779,-21.9649"/>
<polygon fill="#000000" stroke="#000000" points="406.4178,-25.4375 415.9552,-20.8237 405.6222,-18.4829 406.4178,-25.4375"/>
<g id="a_edge28&#45;headlabel"><a xlink:href="dir_000011_000054.html" target="_top" xlink:title="2">
<text text-anchor="middle" x="403.1691" y="-26.1668" font-family="Helvetica,sans-Serif" font-size="10.00" fill="#000000">2</text>
</a>
</g>
</g>
<!-- dir_8afc3b5d71d319c27bc8bd38d925daae -->
<g id="node6" class="node">
<title>dir_8afc3b5d71d319c27bc8bd38d925daae</title>
<g id="a_node6"><a xlink:href="dir_8afc3b5d71d319c27bc8bd38d925daae.html" target="_top" xlink:title="road">
<polygon fill="#ffffff" stroke="#ff0000" points="256,-252 202,-252 202,-216 256,-216 256,-252"/>
<text text-anchor="middle" x="229" y="-231.5" font-family="Helvetica,sans-Serif" font-size="10.00" fill="#000000">road</text>
</a>
</g>
</g>
<!-- dir_64d7bb605f27024d49af86070bd3f0b6&#45;&gt;dir_8afc3b5d71d319c27bc8bd38d925daae -->
<g id="edge29" class="edge">
<title>dir_64d7bb605f27024d49af86070bd3f0b6&#45;&gt;dir_8afc3b5d71d319c27bc8bd38d925daae</title>
<path fill="none" stroke="#000000" d="M404.8978,-373.4253C373.4524,-366.9743 321.402,-352.6425 286,-324 274.9424,-315.0537 256.5961,-284.3695 243.7111,-261.2977"/>
<polygon fill="#000000" stroke="#000000" points="246.6259,-259.3356 238.7296,-252.2716 240.4973,-262.718 246.6259,-259.3356"/>
<g id="a_edge29&#45;headlabel"><a xlink:href="dir_000011_000046.html" target="_top" xlink:title="18">
<text text-anchor="middle" x="250.8486" y="-258.6108" font-family="Helvetica,sans-Serif" font-size="10.00" fill="#000000">18</text>
</a>
</g>
</g>
<!-- dir_a8dbe3691941680fc0b6dad001059c22 -->
<g id="node7" class="node">
<title>dir_a8dbe3691941680fc0b6dad001059c22</title>
<g id="a_node7"><a xlink:href="dir_a8dbe3691941680fc0b6dad001059c22.html" target="_top" xlink:title="trafficmanager">
<polygon fill="none" stroke="#000000" points="238.5,-324 149.5,-324 149.5,-288 238.5,-288 238.5,-324"/>
<text text-anchor="middle" x="194" y="-303.5" font-family="Helvetica,sans-Serif" font-size="10.00" fill="#000000">trafficmanager</text>
</a>
</g>
</g>
<!-- dir_64d7bb605f27024d49af86070bd3f0b6&#45;&gt;dir_a8dbe3691941680fc0b6dad001059c22 -->
<g id="edge30" class="edge">
<title>dir_64d7bb605f27024d49af86070bd3f0b6&#45;&gt;dir_a8dbe3691941680fc0b6dad001059c22</title>
<path fill="none" stroke="#000000" d="M404.7893,-371.5381C369.8335,-361.9622 307.8302,-343.3458 248.5681,-325.3827"/>
<polygon fill="#000000" stroke="#000000" points="249.2867,-321.9433 238.7013,-322.3904 247.2551,-328.642 249.2867,-321.9433"/>
<g id="a_edge30&#45;headlabel"><a xlink:href="dir_000011_000018.html" target="_top" xlink:title="6">
<text text-anchor="middle" x="253.5506" y="-317.7693" font-family="Helvetica,sans-Serif" font-size="10.00" fill="#000000">6</text>
</a>
</g>
</g>
<!-- dir_83201f30ace02cdf218980110872f8a7 -->
<g id="node9" class="node">
<title>dir_83201f30ace02cdf218980110872f8a7</title>
<g id="a_node9"><a xlink:href="dir_83201f30ace02cdf218980110872f8a7.html" target="_top" xlink:title="rpc">
<polygon fill="none" stroke="#000000" points="366,-180 312,-180 312,-144 366,-144 366,-180"/>
<text text-anchor="middle" x="339" y="-159.5" font-family="Helvetica,sans-Serif" font-size="10.00" fill="#000000">rpc</text>
</a>
</g>
</g>
<!-- dir_64d7bb605f27024d49af86070bd3f0b6&#45;&gt;dir_83201f30ace02cdf218980110872f8a7 -->
<g id="edge31" class="edge">
<title>dir_64d7bb605f27024d49af86070bd3f0b6&#45;&gt;dir_83201f30ace02cdf218980110872f8a7</title>
<path fill="none" stroke="#000000" d="M418.1353,-359.7045C410.8836,-349.5596 402.2422,-336.4995 396,-324 373.5227,-278.9909 355.9124,-222.9337 346.5186,-189.9473"/>
<polygon fill="#000000" stroke="#000000" points="349.8261,-188.7788 343.7616,-180.0914 343.0849,-190.6646 349.8261,-188.7788"/>
<g id="a_edge31&#45;headlabel"><a xlink:href="dir_000011_000010.html" target="_top" xlink:title="83">
<text text-anchor="middle" x="353.5287" y="-188.9757" font-family="Helvetica,sans-Serif" font-size="10.00" fill="#000000">83</text>
</a>
</g>
</g>
<!-- dir_8b032d9d353dba85c86dc5364d785bbe -->
<g id="node10" class="node">
<title>dir_8b032d9d353dba85c86dc5364d785bbe</title>
<g id="a_node10"><a xlink:href="dir_8b032d9d353dba85c86dc5364d785bbe.html" target="_top" xlink:title="geom">
<polygon fill="none" stroke="#000000" points="291,-108 237,-108 237,-72 291,-72 291,-108"/>
<text text-anchor="middle" x="264" y="-87.5" font-family="Helvetica,sans-Serif" font-size="10.00" fill="#000000">geom</text>
</a>
</g>
</g>
<!-- dir_64d7bb605f27024d49af86070bd3f0b6&#45;&gt;dir_8b032d9d353dba85c86dc5364d785bbe -->
<g id="edge32" class="edge">
<title>dir_64d7bb605f27024d49af86070bd3f0b6&#45;&gt;dir_8b032d9d353dba85c86dc5364d785bbe</title>
<path fill="none" stroke="#000000" d="M404.8888,-376.119C322.5897,-370.1367 79.8532,-350.3798 57,-324 -13.7556,-242.3258 150.9888,-146.0523 227.5364,-107.3694"/>
<polygon fill="#000000" stroke="#000000" points="229.4604,-110.3212 236.8489,-102.7277 226.3377,-104.0563 229.4604,-110.3212"/>
<g id="a_edge32&#45;headlabel"><a xlink:href="dir_000011_000023.html" target="_top" xlink:title="19">
<text text-anchor="middle" x="227.5098" y="-111.9658" font-family="Helvetica,sans-Serif" font-size="10.00" fill="#000000">19</text>
</a>
</g>
</g>
<!-- dir_a02f1db122f1bf0661014bee93740912 -->
<g id="node11" class="node">
<title>dir_a02f1db122f1bf0661014bee93740912</title>
<g id="a_node11"><a xlink:href="dir_a02f1db122f1bf0661014bee93740912.html" target="_top" xlink:title="opendrive">
<polygon fill="#ffffff" stroke="#ff0000" points="131.5,-324 66.5,-324 66.5,-288 131.5,-288 131.5,-324"/>
<text text-anchor="middle" x="99" y="-303.5" font-family="Helvetica,sans-Serif" font-size="10.00" fill="#000000">opendrive</text>
</a>
</g>
</g>
<!-- dir_64d7bb605f27024d49af86070bd3f0b6&#45;&gt;dir_a02f1db122f1bf0661014bee93740912 -->
<g id="edge34" class="edge">
<title>dir_64d7bb605f27024d49af86070bd3f0b6&#45;&gt;dir_a02f1db122f1bf0661014bee93740912</title>
<path fill="none" stroke="#000000" d="M404.9309,-375.1111C354.4051,-369.2723 242.3962,-354.2209 141.5873,-324.1657"/>
<polygon fill="#000000" stroke="#000000" points="142.4547,-320.7713 131.869,-321.2101 140.4179,-327.4684 142.4547,-320.7713"/>
<g id="a_edge34&#45;headlabel"><a xlink:href="dir_000011_000047.html" target="_top" xlink:title="1">
<text text-anchor="middle" x="146.7199" y="-316.6007" font-family="Helvetica,sans-Serif" font-size="10.00" fill="#000000">1</text>
</a>
</g>
</g>
<!-- dir_ad0f87b2245230d21b267626b2c7750a -->
<g id="node3" class="node">
<title>dir_ad0f87b2245230d21b267626b2c7750a</title>
<g id="a_node3"><a xlink:href="dir_ad0f87b2245230d21b267626b2c7750a.html" target="_top" xlink:title="nav">
<polygon fill="none" stroke="#000000" points="537,-396 483,-396 483,-360 537,-360 537,-396"/>
<text text-anchor="middle" x="510" y="-375.5" font-family="Helvetica,sans-Serif" font-size="10.00" fill="#000000">nav</text>
</a>
</g>
</g>
<!-- dir_f9a24d883fd04dccdcdb897ae270d193&#45;&gt;dir_ad0f87b2245230d21b267626b2c7750a -->
<g id="edge20" class="edge">
<title>dir_f9a24d883fd04dccdcdb897ae270d193&#45;&gt;dir_ad0f87b2245230d21b267626b2c7750a</title>
<path fill="none" stroke="#000000" d="M445.9717,-324.4133C454.6146,-333.1637 465.9268,-343.7519 476.6799,-353.1978"/>
<polygon fill="#000000" stroke="#000000" points="474.508,-355.9465 484.3649,-359.8314 479.082,-350.6476 474.508,-355.9465"/>
<g id="a_edge20&#45;headlabel"><a xlink:href="dir_000016_000057.html" target="_top" xlink:title="2">
<text text-anchor="middle" x="469.9317" y="-353.2471" font-family="Helvetica,sans-Serif" font-size="10.00" fill="#000000">2</text>
</a>
</g>
</g>
<!-- dir_f9a24d883fd04dccdcdb897ae270d193&#45;&gt;dir_8b842c0ad24262c95de16c440fd51527 -->
<g id="edge21" class="edge">
<title>dir_f9a24d883fd04dccdcdb897ae270d193&#45;&gt;dir_8b842c0ad24262c95de16c440fd51527</title>
<path fill="none" stroke="#000000" d="M404.7887,-306C389.5532,-306 374.3177,-306 359.0822,-306"/>
<polygon fill="#000000" stroke="#000000" points="359.0703,-302.5001 349.0703,-306 359.0703,-309.5001 359.0703,-302.5001"/>
<g id="a_edge21&#45;headlabel"><a xlink:href="dir_000016_000014.html" target="_top" xlink:title="3">
<text text-anchor="middle" x="362.6649" y="-297.1607" font-family="Helvetica,sans-Serif" font-size="10.00" fill="#000000">3</text>
</a>
</g>
</g>
<!-- dir_f9a24d883fd04dccdcdb897ae270d193&#45;&gt;dir_a44fab28cda52915bea048e19f74f82b -->
<g id="edge22" class="edge">
<title>dir_f9a24d883fd04dccdcdb897ae270d193&#45;&gt;dir_a44fab28cda52915bea048e19f74f82b</title>
<path fill="none" stroke="#000000" d="M457.5052,-287.9627C468.4753,-278.6284 480.1145,-266.2089 486,-252 497.5261,-224.1735 529.6611,-200.7088 485,-72 481.4959,-61.9015 475.2646,-52.2294 468.6567,-43.9319"/>
<polygon fill="#000000" stroke="#000000" points="471.1588,-41.4717 462.0104,-36.1277 465.8295,-46.0103 471.1588,-41.4717"/>
<g id="a_edge22&#45;headlabel"><a xlink:href="dir_000016_000054.html" target="_top" xlink:title="1">
<text text-anchor="middle" x="475.651" y="-39.8674" font-family="Helvetica,sans-Serif" font-size="10.00" fill="#000000">1</text>
</a>
</g>
</g>
<!-- dir_f9a24d883fd04dccdcdb897ae270d193&#45;&gt;dir_a8dbe3691941680fc0b6dad001059c22 -->
<g id="edge23" class="edge">
<title>dir_f9a24d883fd04dccdcdb897ae270d193&#45;&gt;dir_a8dbe3691941680fc0b6dad001059c22</title>
<path fill="none" stroke="#000000" d="M404.892,-321.1233C389.1111,-329.0551 368.5314,-337.9467 349,-342 312.754,-349.522 271.9858,-339.3063 241.3601,-327.8609"/>
<polygon fill="#000000" stroke="#000000" points="242.3797,-324.5017 231.7916,-324.1226 239.8323,-331.0217 242.3797,-324.5017"/>
<g id="a_edge23&#45;headlabel"><a xlink:href="dir_000016_000018.html" target="_top" xlink:title="2">
<text text-anchor="middle" x="246.761" y="-320.6651" font-family="Helvetica,sans-Serif" font-size="10.00" fill="#000000">2</text>
</a>
</g>
</g>
<!-- dir_6d1a5b6c73cd09063239376f47f02d88 -->
<g id="node8" class="node">
<title>dir_6d1a5b6c73cd09063239376f47f02d88</title>
<g id="a_node8"><a xlink:href="dir_6d1a5b6c73cd09063239376f47f02d88.html" target="_top" xlink:title="streaming">
<polygon fill="#ffffff" stroke="#ff0000" points="476,-108 410,-108 410,-72 476,-72 476,-108"/>
<text text-anchor="middle" x="443" y="-87.5" font-family="Helvetica,sans-Serif" font-size="10.00" fill="#000000">streaming</text>
</a>
</g>
</g>
<!-- dir_f9a24d883fd04dccdcdb897ae270d193&#45;&gt;dir_6d1a5b6c73cd09063239376f47f02d88 -->
<g id="edge24" class="edge">
<title>dir_f9a24d883fd04dccdcdb897ae270d193&#45;&gt;dir_6d1a5b6c73cd09063239376f47f02d88</title>
<path fill="none" stroke="#000000" d="M447.9905,-287.9169C455.6538,-278.0371 464.0166,-265.1563 468,-252 481.9096,-206.0596 478.3246,-190.8765 468,-144 466.0195,-135.0081 462.3879,-125.7321 458.4949,-117.4596"/>
<polygon fill="#000000" stroke="#000000" points="461.5038,-115.6522 453.888,-108.2867 455.2484,-118.7939 461.5038,-115.6522"/>
<g id="a_edge24&#45;headlabel"><a xlink:href="dir_000016_000038.html" target="_top" xlink:title="1">
<text text-anchor="middle" x="465.6543" y="-115.0902" font-family="Helvetica,sans-Serif" font-size="10.00" fill="#000000">1</text>
</a>
</g>
</g>
<!-- dir_f9a24d883fd04dccdcdb897ae270d193&#45;&gt;dir_83201f30ace02cdf218980110872f8a7 -->
<g id="edge25" class="edge">
<title>dir_f9a24d883fd04dccdcdb897ae270d193&#45;&gt;dir_83201f30ace02cdf218980110872f8a7</title>
<path fill="none" stroke="#000000" d="M426.0811,-287.7732C419.456,-268.8625 407.5751,-238.9064 392,-216 385.0305,-205.7499 375.9982,-195.7196 367.3707,-187.1396"/>
<polygon fill="#000000" stroke="#000000" points="369.5878,-184.4157 359.9552,-180.0039 364.7341,-189.4597 369.5878,-184.4157"/>
<g id="a_edge25&#45;headlabel"><a xlink:href="dir_000016_000010.html" target="_top" xlink:title="49">
<text text-anchor="middle" x="374.1466" y="-182.3622" font-family="Helvetica,sans-Serif" font-size="10.00" fill="#000000">49</text>
</a>
</g>
</g>
<!-- dir_f9a24d883fd04dccdcdb897ae270d193&#45;&gt;dir_8b032d9d353dba85c86dc5364d785bbe -->
<g id="edge26" class="edge">
<title>dir_f9a24d883fd04dccdcdb897ae270d193&#45;&gt;dir_8b032d9d353dba85c86dc5364d785bbe</title>
<path fill="none" stroke="#000000" d="M430.8628,-287.8077C427.7849,-254.4352 416.4545,-183.2617 375,-144 354.0337,-124.1427 324.3854,-110.2285 301.0039,-101.5026"/>
<polygon fill="#000000" stroke="#000000" points="302.0052,-98.1438 291.4106,-98.0784 299.652,-104.7364 302.0052,-98.1438"/>
<g id="a_edge26&#45;headlabel"><a xlink:href="dir_000016_000023.html" target="_top" xlink:title="3">
<text text-anchor="middle" x="306.3451" y="-94.1781" font-family="Helvetica,sans-Serif" font-size="10.00" fill="#000000">3</text>
</a>
</g>
</g>
<!-- dir_ad0f87b2245230d21b267626b2c7750a&#45;&gt;dir_64d7bb605f27024d49af86070bd3f0b6 -->
<g id="edge4" class="edge">
<title>dir_ad0f87b2245230d21b267626b2c7750a&#45;&gt;dir_64d7bb605f27024d49af86070bd3f0b6</title>
<path fill="none" stroke="#000000" d="M482.9685,-378C478.3722,-378 473.7758,-378 469.1795,-378"/>
<polygon fill="#000000" stroke="#000000" points="469.1172,-374.5001 459.1172,-378 469.1172,-381.5001 469.1172,-374.5001"/>
<g id="a_edge4&#45;headlabel"><a xlink:href="dir_000057_000011.html" target="_top" xlink:title="7">
<text text-anchor="middle" x="472.7118" y="-369.1607" font-family="Helvetica,sans-Serif" font-size="10.00" fill="#000000">7</text>
</a>
</g>
</g>
<!-- dir_ad0f87b2245230d21b267626b2c7750a&#45;&gt;dir_f9a24d883fd04dccdcdb897ae270d193 -->
<g id="edge3" class="edge">
<title>dir_ad0f87b2245230d21b267626b2c7750a&#45;&gt;dir_f9a24d883fd04dccdcdb897ae270d193</title>
<path fill="none" stroke="#000000" d="M496.2697,-359.8314C487.6108,-351.0485 476.2108,-340.3712 465.3731,-330.8489"/>
<polygon fill="#000000" stroke="#000000" points="467.485,-328.0482 457.6282,-324.1628 462.9107,-333.3469 467.485,-328.0482"/>
<g id="a_edge3&#45;headlabel"><a xlink:href="dir_000057_000016.html" target="_top" xlink:title="2">
<text text-anchor="middle" x="472.0613" y="-325.7479" font-family="Helvetica,sans-Serif" font-size="10.00" fill="#000000">2</text>
</a>
</g>
</g>
<!-- dir_ad0f87b2245230d21b267626b2c7750a&#45;&gt;dir_83201f30ace02cdf218980110872f8a7 -->
<g id="edge1" class="edge">
<title>dir_ad0f87b2245230d21b267626b2c7750a&#45;&gt;dir_83201f30ace02cdf218980110872f8a7</title>
<path fill="none" stroke="#000000" d="M505.8337,-359.6577C500.265,-337.6122 488.9599,-300.0832 471,-272 446.5713,-233.8018 404.6182,-202.1855 374.562,-182.8009"/>
<polygon fill="#000000" stroke="#000000" points="376.3625,-179.7985 366.0373,-177.4234 372.6277,-185.719 376.3625,-179.7985"/>
<g id="a_edge1&#45;headlabel"><a xlink:href="dir_000057_000010.html" target="_top" xlink:title="6">
<text text-anchor="middle" x="380.9175" y="-176.8149" font-family="Helvetica,sans-Serif" font-size="10.00" fill="#000000">6</text>
</a>
</g>
</g>
<!-- dir_ad0f87b2245230d21b267626b2c7750a&#45;&gt;dir_8b032d9d353dba85c86dc5364d785bbe -->
<g id="edge2" class="edge">
<title>dir_ad0f87b2245230d21b267626b2c7750a&#45;&gt;dir_8b032d9d353dba85c86dc5364d785bbe</title>
<path fill="none" stroke="#000000" d="M510.571,-359.6649C510.6197,-337.9514 508.7028,-301.0662 497,-272 470.4408,-206.0349 457.551,-187.1135 401,-144 371.0828,-121.1916 330.2936,-106.7623 301.0158,-98.6153"/>
<polygon fill="#000000" stroke="#000000" points="301.7408,-95.1864 291.1767,-95.9922 299.9376,-101.9502 301.7408,-95.1864"/>
<g id="a_edge2&#45;headlabel"><a xlink:href="dir_000057_000023.html" target="_top" xlink:title="5">
<text text-anchor="middle" x="305.9455" y="-90.8689" font-family="Helvetica,sans-Serif" font-size="10.00" fill="#000000">5</text>
</a>
</g>
</g>
<!-- dir_8b842c0ad24262c95de16c440fd51527&#45;&gt;dir_f9a24d883fd04dccdcdb897ae270d193 -->
<g id="edge8" class="edge">
<title>dir_8b842c0ad24262c95de16c440fd51527&#45;&gt;dir_f9a24d883fd04dccdcdb897ae270d193</title>
<path fill="none" stroke="#000000" d="M349.0703,-306C364.3058,-306 379.5413,-306 394.7768,-306"/>
<polygon fill="#000000" stroke="#000000" points="394.7887,-309.5001 404.7887,-306 394.7887,-302.5001 394.7887,-309.5001"/>
<g id="a_edge8&#45;headlabel"><a xlink:href="dir_000014_000016.html" target="_top" xlink:title="4">
<text text-anchor="middle" x="391.1941" y="-309.8393" font-family="Helvetica,sans-Serif" font-size="10.00" fill="#000000">4</text>
</a>
</g>
</g>
<!-- dir_8b842c0ad24262c95de16c440fd51527&#45;&gt;dir_8afc3b5d71d319c27bc8bd38d925daae -->
<g id="edge5" class="edge">
<title>dir_8b842c0ad24262c95de16c440fd51527&#45;&gt;dir_8afc3b5d71d319c27bc8bd38d925daae</title>
<path fill="none" stroke="#000000" d="M300.498,-287.7509C294.271,-282.5803 287.42,-277.0002 281,-272 275.1171,-267.4182 268.7706,-262.6448 262.601,-258.0906"/>
<polygon fill="#000000" stroke="#000000" points="264.4941,-255.1388 254.358,-252.0548 260.3585,-260.7866 264.4941,-255.1388"/>
<g id="a_edge5&#45;headlabel"><a xlink:href="dir_000014_000046.html" target="_top" xlink:title="1">
<text text-anchor="middle" x="269.0717" y="-252.4716" font-family="Helvetica,sans-Serif" font-size="10.00" fill="#000000">1</text>
</a>
</g>
</g>
<!-- dir_8b842c0ad24262c95de16c440fd51527&#45;&gt;dir_83201f30ace02cdf218980110872f8a7 -->
<g id="edge6" class="edge">
<title>dir_8b842c0ad24262c95de16c440fd51527&#45;&gt;dir_83201f30ace02cdf218980110872f8a7</title>
<path fill="none" stroke="#000000" d="M319.4799,-287.7623C319.9216,-263.0928 324.8773,-218.8598 330.2256,-189.9731"/>
<polygon fill="#000000" stroke="#000000" points="333.673,-190.5824 332.2061,-180.0896 326.8094,-189.207 333.673,-190.5824"/>
<g id="a_edge6&#45;headlabel"><a xlink:href="dir_000014_000010.html" target="_top" xlink:title="17">
<text text-anchor="middle" x="335.7507" y="-192.1648" font-family="Helvetica,sans-Serif" font-size="10.00" fill="#000000">17</text>
</a>
</g>
</g>
<!-- dir_8b842c0ad24262c95de16c440fd51527&#45;&gt;dir_8b032d9d353dba85c86dc5364d785bbe -->
<g id="edge7" class="edge">
<title>dir_8b842c0ad24262c95de16c440fd51527&#45;&gt;dir_8b032d9d353dba85c86dc5364d785bbe</title>
<path fill="none" stroke="#000000" d="M317.1547,-287.9555C307.0261,-250.235 283.5532,-162.8188 271.4755,-117.8399"/>
<polygon fill="#000000" stroke="#000000" points="274.8459,-116.8953 268.8723,-108.1451 268.0854,-118.7106 274.8459,-116.8953"/>
<g id="a_edge7&#45;headlabel"><a xlink:href="dir_000014_000023.html" target="_top" xlink:title="9">
<text text-anchor="middle" x="278.5202" y="-117.1306" font-family="Helvetica,sans-Serif" font-size="10.00" fill="#000000">9</text>
</a>
</g>
</g>
<!-- dir_8afc3b5d71d319c27bc8bd38d925daae&#45;&gt;dir_83201f30ace02cdf218980110872f8a7 -->
<g id="edge9" class="edge">
<title>dir_8afc3b5d71d319c27bc8bd38d925daae&#45;&gt;dir_83201f30ace02cdf218980110872f8a7</title>
<path fill="none" stroke="#000000" d="M256.191,-216.2022C270.3378,-206.9425 287.8157,-195.5025 303.063,-185.5224"/>
<polygon fill="#000000" stroke="#000000" points="305.2903,-188.2476 311.7406,-179.8425 301.4567,-182.3907 305.2903,-188.2476"/>
<g id="a_edge9&#45;headlabel"><a xlink:href="dir_000046_000010.html" target="_top" xlink:title="3">
<text text-anchor="middle" x="303.8377" y="-190.0918" font-family="Helvetica,sans-Serif" font-size="10.00" fill="#000000">3</text>
</a>
</g>
</g>
<!-- dir_8afc3b5d71d319c27bc8bd38d925daae&#45;&gt;dir_8b032d9d353dba85c86dc5364d785bbe -->
<g id="edge10" class="edge">
<title>dir_8afc3b5d71d319c27bc8bd38d925daae&#45;&gt;dir_8b032d9d353dba85c86dc5364d785bbe</title>
<path fill="none" stroke="#000000" d="M233.4328,-215.7623C239.4288,-191.0928 250.1799,-146.8598 257.201,-117.9731"/>
<polygon fill="#000000" stroke="#000000" points="260.6423,-118.6334 259.6032,-108.0896 253.8404,-116.9801 260.6423,-118.6334"/>
<g id="a_edge10&#45;headlabel"><a xlink:href="dir_000046_000023.html" target="_top" xlink:title="34">
<text text-anchor="middle" x="262.5524" y="-120.2968" font-family="Helvetica,sans-Serif" font-size="10.00" fill="#000000">34</text>
</a>
</g>
</g>
<!-- dir_a8dbe3691941680fc0b6dad001059c22&#45;&gt;dir_64d7bb605f27024d49af86070bd3f0b6 -->
<g id="edge15" class="edge">
<title>dir_a8dbe3691941680fc0b6dad001059c22&#45;&gt;dir_64d7bb605f27024d49af86070bd3f0b6</title>
<path fill="none" stroke="#000000" d="M238.6664,-316.9645C246.507,-319.2916 254.519,-321.7304 262,-324 307.9404,-337.9374 360.5444,-353.7946 395.0429,-364.7013"/>
<polygon fill="#000000" stroke="#000000" points="394.1155,-368.0791 404.7061,-367.7798 396.2404,-361.4094 394.1155,-368.0791"/>
<g id="a_edge15&#45;headlabel"><a xlink:href="dir_000018_000011.html" target="_top" xlink:title="31">
<text text-anchor="middle" x="389.8286" y="-367.1933" font-family="Helvetica,sans-Serif" font-size="10.00" fill="#000000">31</text>
</a>
</g>
</g>
<!-- dir_a8dbe3691941680fc0b6dad001059c22&#45;&gt;dir_f9a24d883fd04dccdcdb897ae270d193 -->
<g id="edge14" class="edge">
<title>dir_a8dbe3691941680fc0b6dad001059c22&#45;&gt;dir_f9a24d883fd04dccdcdb897ae270d193</title>
<path fill="none" stroke="#000000" d="M231.7916,-324.1226C263.1085,-336.8874 308.8313,-350.3361 349,-342 364.8693,-338.7067 381.4306,-332.2193 395.5477,-325.6479"/>
<polygon fill="#000000" stroke="#000000" points="397.417,-328.6316 404.892,-321.1233 394.3663,-322.3313 397.417,-328.6316"/>
<g id="a_edge14&#45;headlabel"><a xlink:href="dir_000018_000016.html" target="_top" xlink:title="6">
<text text-anchor="middle" x="395.4191" y="-330.2535" font-family="Helvetica,sans-Serif" font-size="10.00" fill="#000000">6</text>
</a>
</g>
</g>
<!-- dir_a8dbe3691941680fc0b6dad001059c22&#45;&gt;dir_8afc3b5d71d319c27bc8bd38d925daae -->
<g id="edge11" class="edge">
<title>dir_a8dbe3691941680fc0b6dad001059c22&#45;&gt;dir_8afc3b5d71d319c27bc8bd38d925daae</title>
<path fill="none" stroke="#000000" d="M202.832,-287.8314C206.6986,-279.8771 211.3206,-270.369 215.5968,-261.5723"/>
<polygon fill="#000000" stroke="#000000" points="218.8249,-262.9371 220.0491,-252.4133 212.5293,-259.8768 218.8249,-262.9371"/>
<g id="a_edge11&#45;headlabel"><a xlink:href="dir_000018_000046.html" target="_top" xlink:title="4">
<text text-anchor="middle" x="219.807" y="-264.9113" font-family="Helvetica,sans-Serif" font-size="10.00" fill="#000000">4</text>
</a>
</g>
</g>
<!-- dir_a8dbe3691941680fc0b6dad001059c22&#45;&gt;dir_83201f30ace02cdf218980110872f8a7 -->
<g id="edge12" class="edge">
<title>dir_a8dbe3691941680fc0b6dad001059c22&#45;&gt;dir_83201f30ace02cdf218980110872f8a7</title>
<path fill="none" stroke="#000000" d="M188.1257,-287.9889C182.9408,-268.4301 178.2665,-237.1584 193,-216 205.7591,-197.6771 262.8714,-180.5106 301.7661,-170.6411"/>
<polygon fill="#000000" stroke="#000000" points="302.8487,-173.9787 311.7122,-168.1744 301.1637,-167.1846 302.8487,-173.9787"/>
<g id="a_edge12&#45;headlabel"><a xlink:href="dir_000018_000010.html" target="_top" xlink:title="12">
<text text-anchor="middle" x="300.0432" y="-175.0997" font-family="Helvetica,sans-Serif" font-size="10.00" fill="#000000">12</text>
</a>
</g>
</g>
<!-- dir_a8dbe3691941680fc0b6dad001059c22&#45;&gt;dir_8b032d9d353dba85c86dc5364d785bbe -->
<g id="edge13" class="edge">
<title>dir_a8dbe3691941680fc0b6dad001059c22&#45;&gt;dir_8b032d9d353dba85c86dc5364d785bbe</title>
<path fill="none" stroke="#000000" d="M186.4772,-287.7392C179.97,-269.3175 172.6683,-240.2151 180,-216 191.7046,-177.3423 219.6136,-139.7044 240.0621,-115.7849"/>
<polygon fill="#000000" stroke="#000000" points="242.7308,-118.0501 246.6766,-108.2174 237.4603,-113.4433 242.7308,-118.0501"/>
<g id="a_edge13&#45;headlabel"><a xlink:href="dir_000018_000023.html" target="_top" xlink:title="11">
<text text-anchor="middle" x="242.5029" y="-120.125" font-family="Helvetica,sans-Serif" font-size="10.00" fill="#000000">11</text>
</a>
</g>
</g>
<!-- dir_6d1a5b6c73cd09063239376f47f02d88&#45;&gt;dir_a44fab28cda52915bea048e19f74f82b -->
<g id="edge16" class="edge">
<title>dir_6d1a5b6c73cd09063239376f47f02d88&#45;&gt;dir_a44fab28cda52915bea048e19f74f82b</title>
<path fill="none" stroke="#000000" d="M443,-71.8314C443,-64.131 443,-54.9743 443,-46.4166"/>
<polygon fill="#000000" stroke="#000000" points="446.5001,-46.4132 443,-36.4133 439.5001,-46.4133 446.5001,-46.4132"/>
<g id="a_edge16&#45;headlabel"><a xlink:href="dir_000038_000054.html" target="_top" xlink:title="2">
<text text-anchor="middle" x="449.3393" y="-47.5079" font-family="Helvetica,sans-Serif" font-size="10.00" fill="#000000">2</text>
</a>
</g>
</g>
<!-- dir_83201f30ace02cdf218980110872f8a7&#45;&gt;dir_8b842c0ad24262c95de16c440fd51527 -->
<g id="edge17" class="edge">
<title>dir_83201f30ace02cdf218980110872f8a7&#45;&gt;dir_8b842c0ad24262c95de16c440fd51527</title>
<path fill="none" stroke="#000000" d="M341.5227,-180.0896C341.0991,-204.6805 336.1533,-248.905 330.8066,-277.8531"/>
<polygon fill="#000000" stroke="#000000" points="327.3539,-277.2703 328.8262,-287.7623 334.2182,-278.6421 327.3539,-277.2703"/>
<g id="a_edge17&#45;headlabel"><a xlink:href="dir_000010_000014.html" target="_top" xlink:title="1">
<text text-anchor="middle" x="325.2741" y="-270.689" font-family="Helvetica,sans-Serif" font-size="10.00" fill="#000000">1</text>
</a>
</g>
</g>
<!-- dir_83201f30ace02cdf218980110872f8a7&#45;&gt;dir_6d1a5b6c73cd09063239376f47f02d88 -->
<g id="edge18" class="edge">
<title>dir_83201f30ace02cdf218980110872f8a7&#45;&gt;dir_6d1a5b6c73cd09063239376f47f02d88</title>
<path fill="none" stroke="#000000" d="M365.2436,-143.8314C378.2995,-134.7927 394.2535,-123.7476 408.3047,-114.0198"/>
<polygon fill="#000000" stroke="#000000" points="410.5351,-116.7326 416.7648,-108.1628 406.5506,-110.9773 410.5351,-116.7326"/>
<g id="a_edge18&#45;headlabel"><a xlink:href="dir_000010_000038.html" target="_top" xlink:title="2">
<text text-anchor="middle" x="409.1958" y="-118.6131" font-family="Helvetica,sans-Serif" font-size="10.00" fill="#000000">2</text>
</a>
</g>
</g>
<!-- dir_83201f30ace02cdf218980110872f8a7&#45;&gt;dir_8b032d9d353dba85c86dc5364d785bbe -->
<g id="edge19" class="edge">
<title>dir_83201f30ace02cdf218980110872f8a7&#45;&gt;dir_8b032d9d353dba85c86dc5364d785bbe</title>
<path fill="none" stroke="#000000" d="M320.0743,-143.8314C311.0143,-135.1337 300.0191,-124.5783 290.1735,-115.1265"/>
<polygon fill="#000000" stroke="#000000" points="292.5574,-112.5633 282.9196,-108.1628 287.7096,-117.613 292.5574,-112.5633"/>
<g id="a_edge19&#45;headlabel"><a xlink:href="dir_000010_000023.html" target="_top" xlink:title="16">
<text text-anchor="middle" x="297.1167" y="-110.5045" font-family="Helvetica,sans-Serif" font-size="10.00" fill="#000000">16</text>
</a>
</g>
</g>
<!-- dir_a02f1db122f1bf0661014bee93740912&#45;&gt;dir_8afc3b5d71d319c27bc8bd38d925daae -->
<g id="edge35" class="edge">
<title>dir_a02f1db122f1bf0661014bee93740912&#45;&gt;dir_8afc3b5d71d319c27bc8bd38d925daae</title>
<path fill="none" stroke="#000000" d="M118.5621,-287.8257C125.0815,-282.3149 132.5802,-276.528 140,-272 156.4241,-261.9769 175.9647,-253.3167 192.5466,-246.806"/>
<polygon fill="#000000" stroke="#000000" points="193.8279,-250.0633 201.9219,-243.2269 191.3312,-243.5236 193.8279,-250.0633"/>
<g id="a_edge35&#45;headlabel"><a xlink:href="dir_000047_000046.html" target="_top" xlink:title="15">
<text text-anchor="middle" x="191.4823" y="-251.4978" font-family="Helvetica,sans-Serif" font-size="10.00" fill="#000000">15</text>
</a>
</g>
</g>
<!-- dir_a02f1db122f1bf0661014bee93740912&#45;&gt;dir_8b032d9d353dba85c86dc5364d785bbe -->
<g id="edge36" class="edge">
<title>dir_a02f1db122f1bf0661014bee93740912&#45;&gt;dir_8b032d9d353dba85c86dc5364d785bbe</title>
<path fill="none" stroke="#000000" d="M106.5886,-287.9868C120.4763,-256.4169 152.3302,-190.0748 193,-144 203.3252,-132.3025 216.5202,-121.4484 228.727,-112.5857"/>
<polygon fill="#000000" stroke="#000000" points="230.8094,-115.4 236.9725,-106.7821 226.7804,-109.6757 230.8094,-115.4"/>
<g id="a_edge36&#45;headlabel"><a xlink:href="dir_000047_000023.html" target="_top" xlink:title="1">
<text text-anchor="middle" x="229.5041" y="-117.2907" font-family="Helvetica,sans-Serif" font-size="10.00" fill="#000000">1</text>
</a>
</g>
</g>
</g>
</svg>
